# xmcd
#
# Track frame offsets: 
#        180
#        20191
#        38713
#        60732
#        75519
#        95396
#        104847
#        121588
#        146057
#        174423
#
# Disc length: 2336 seconds
#
# Revision: 0
# Processed by: cddbd v1.5PL3 Copyright (c) Steve Scherf et al.
# Submitted via: ExactAudioCopy v0.95a5
#
DISCID=81091e0a
DTITLE=KRS-One - Strickly for Da Breakdancers and Emceez
DYEAR=1996
DGENRE=Rap
TTITLE0=Steady Bounce
TTITLE1=Wanna Battle?
TTITLE2=Warm Up
TTITLE3=Yes, Yes, Y'all
TTITLE4=Venus
TTITLE5=Nute
TTITLE6=Tiamot
TTITLE7=Ashera
TTITLE8=Isis
TTITLE9=A Moment of Silence
EXTD=
EXTT0=
EXTT1=
EXTT2=
EXTT3=
EXTT4=
EXTT5=
EXTT6=
EXTT7=
EXTT8=
EXTT9=
PLAYORDER=
